<?xml version="1.0" encoding="UTF-8"?>
<svg width="48px" height="48px" viewBox="0 0 48 48" version="1.1" xmlns="http://www.w3.org/2000/svg" xmlns:xlink="http://www.w3.org/1999/xlink">
    <title>2.0@1x</title>
    <g id="2.0" stroke="none" stroke-width="1" fill="none" fill-rule="evenodd" stroke-linecap="round">
        <g id="Sun-1" transform="translate(5.987911, 6.989017)" stroke="#000000" stroke-width="4">
            <path d="M0,4.01403007 C5.71663107,6.56818803 12.2497449,6.57067579 17.9683196,4.02087227 L17.984384,4.01370943 C23.7140047,1.45898068 30.2589515,1.45744175 35.9897729,4.00947579 L36,4.01403007 L36,4.01403007" id="Line" opacity="0.50172061" transform="translate(18.000000, 4.013709) scale(-1, 1) translate(-18.000000, -4.013709) "></path>
            <path d="M0,30.0140301 C5.71663107,32.568188 12.2497449,32.5706758 17.9683196,30.0208723 L17.984384,30.0137094 C23.7140047,27.4589807 30.2589515,27.4574417 35.9897729,30.0094758 L36,30.0140301 L36,30.0140301" id="Line-Copy-2" opacity="0.50172061" transform="translate(18.000000, 30.013709) scale(-1, 1) translate(-18.000000, -30.013709) "></path>
            <path d="M0,17.0140301 C5.71663107,19.568188 12.2497449,19.5706758 17.9683196,17.0208723 L17.984384,17.0137094 C23.7140047,14.4589807 30.2589515,14.4574417 35.9897729,17.0094758 L36,17.0140301 L36,17.0140301" id="Line-Copy" transform="translate(18.000000, 17.013709) scale(-1, 1) translate(-18.000000, -17.013709) "></path>
        </g>
    </g>
</svg>