<svg class="border shadow-md" viewBox="0 0 2117.28 1058.64" xmlns="http://www.w3.org/2000/svg" preserveAspectRatio="none" style="width: 2117.28px; height: 1058.64px;"><g transform="rotate(46 1058.64 529.32)"><path d="M -705.76 838.64 S -621.00 674.64&#10;            0.00 838.64 129.76 800.64&#10;            705.76 838.64 882.52 829.64&#10;            1411.52 838.64 1537.28 775.64&#10;            2117.28 838.64 2460.16 668.64&#10;            2823.04 838.64 h 110 V 1658.64 H -705.76 Z" fill="#DF6589"/><path d="M -705.76 245.00 S -362.88 132.50&#10;            0.00 245.00 109.76 132.50&#10;            705.76 245.00 807.52 132.50&#10;            1411.52 245.00 1754.40 132.50&#10;            2117.28 245.00 2460.16 132.00&#10;            2823.04 245.00 h 110 V -600 H -705.76 Z" fill="#3C1053"/></g></svg>