<?xml version="1.0" encoding="UTF-8"?>
<svg width="227px" height="271px" viewBox="0 0 227 271" version="1.1" xmlns="http://www.w3.org/2000/svg" xmlns:xlink="http://www.w3.org/1999/xlink">
    <title>Path</title>
    <g id="Page-1" stroke="none" stroke-width="1" fill="none" fill-rule="evenodd">
        <g id="Bildschirmfoto-2023-12-03-um-22.13.08" transform="translate(0.450530, 0.411748)" fill="#FFFFFF" fill-rule="nonzero">
            <path d="M135.38947,109.118252 L135.30947,235.318252 C135.30947,239.978252 135.26947,244.651586 135.18947,249.338252 C134.80947,272.058252 104.34947,278.508252 93.56947,259.268252 C91.60947,255.778252 91.19947,251.948252 91.12947,248.088252 C91.0361366,243.154919 90.9928033,238.231586 90.99947,233.318252 L90.75947,103.128252 L90.92947,77.5882522 C90.9361366,76.3482522 90.51947,76.1849189 89.67947,77.0982522 C87.61947,79.3182522 85.5961366,81.4282522 83.60947,83.4282522 C67.12947,99.9949189 51.8428033,115.104919 37.74947,128.758252 C32.66947,133.684919 26.5161366,135.761586 19.28947,134.988252 C2.91946997,133.228252 -4.67053003,116.488252 3.00946997,102.278252 C4.26946997,99.9582522 6.58946997,97.1115855 9.96946997,93.7382522 C38.84947,64.9249189 66.58947,37.1282522 93.18947,10.3482522 C100.18947,3.2982522 105.46947,-0.611747797 115.04947,0.0782522033 C120.576137,0.478252203 125.38947,2.73491887 129.48947,6.8482522 C158.656137,36.1615855 188.522803,66.2415855 219.08947,97.0882522 C220.98947,99.0082522 222.472803,100.941586 223.53947,102.888252 C228.93947,112.788252 226.52947,125.618252 216.64947,131.788252 C209.516137,136.254919 202.136137,136.671586 194.50947,133.038252 C192.202803,131.944919 189.322803,129.671586 185.86947,126.218252 C169.642803,109.978252 152.986137,93.7115855 135.89947,77.4182522 C135.792424,77.3124774 135.631979,77.2820748 135.493657,77.3413555 C135.355336,77.4006362 135.266699,77.5377883 135.26947,77.6882522 L135.38947,109.118252 Z" id="Path"></path>
        </g>
    </g>
</svg>