<?xml version="1.0" encoding="UTF-8"?>
<svg width="48px" height="48px" viewBox="0 0 48 48" version="1.1" xmlns="http://www.w3.org/2000/svg" xmlns:xlink="http://www.w3.org/1999/xlink">
    <title>2.0@1x</title>
    <g id="2.0" stroke="none" stroke-width="1" fill="none" fill-rule="evenodd">
        <g id="Sun-2" transform="translate(0.760409, 0.799616)">
            <g id="Group" fill="#000000">
                <path d="M23.2395911,4 C24.3441606,4 25.2395911,3.1045695 25.2395911,2 C25.2395911,0.8954305 24.3441606,-8.8817842e-16 23.2395911,-8.8817842e-16 C22.1350216,-8.8817842e-16 21.2395911,0.8954305 21.2395911,2 C21.2395911,3.1045695 22.1350216,4 23.2395911,4 Z" id="Oval"></path>
                <path d="M44.4795143,25.2003836 C45.5840838,25.2003836 46.4795143,24.3049531 46.4795143,23.2003836 C46.4795143,22.0958141 45.5840838,21.2003836 44.4795143,21.2003836 C43.3749448,21.2003836 42.4795143,22.0958141 42.4795143,23.2003836 C42.4795143,24.3049531 43.3749448,25.2003836 44.4795143,25.2003836 Z" id="Oval"></path>
                <path d="M2,25.2003836 C3.1045695,25.2003836 4,24.3049531 4,23.2003836 C4,22.0958141 3.1045695,21.2003836 2,21.2003836 C0.8954305,21.2003836 0,22.0958141 0,23.2003836 C0,24.3049531 0.8954305,25.2003836 2,25.2003836 Z" id="Oval-Copy"></path>
                <path d="M38.2395911,10.2003836 C39.3441606,10.2003836 40.2395911,9.3049531 40.2395911,8.2003836 C40.2395911,7.0958141 39.3441606,6.2003836 38.2395911,6.2003836 C37.1350216,6.2003836 36.2395911,7.0958141 36.2395911,8.2003836 C36.2395911,9.3049531 37.1350216,10.2003836 38.2395911,10.2003836 Z" id="Oval-Copy-5"></path>
                <path d="M8.23959107,10.2003836 C9.34416057,10.2003836 10.2395911,9.3049531 10.2395911,8.2003836 C10.2395911,7.0958141 9.34416057,6.2003836 8.23959107,6.2003836 C7.13502157,6.2003836 6.23959107,7.0958141 6.23959107,8.2003836 C6.23959107,9.3049531 7.13502157,10.2003836 8.23959107,10.2003836 Z" id="Oval-Copy-7"></path>
            </g>
            <line x1="3.73959107" y1="31.7003836" x2="42.7395911" y2="31.7003836" id="Line-2" stroke="#000000" stroke-width="4" stroke-linecap="round"></line>
            <line x1="9.73959107" y1="39.7003836" x2="36.7395911" y2="39.7003836" id="Line-2-Copy" stroke="#000000" stroke-width="4" stroke-linecap="round"></line>
            <path d="M38.2395911,23.2005174 C38.2395911,14.9161124 31.5238623,8.2003836 23.2395911,8.2003836 C14.9553198,8.2003836 8.23959107,14.9161124 8.23959107,23.2005174 C12.1574449,23.1935573 17.7515317,23.1876161 23.2625969,23.1862 C30.7510972,23.1842759 30.7497554,23.1996458 38.2395911,23.2005174 Z" id="Oval" fill-opacity="0.5" fill="#000000"></path>
        </g>
    </g>
</svg>