<?xml version="1.0" encoding="UTF-8"?>
<svg width="48px" height="48px" viewBox="0 0 48 48" version="1.1" xmlns="http://www.w3.org/2000/svg" xmlns:xlink="http://www.w3.org/1999/xlink">
    <title>2.0@1x</title>
    <g id="2.0" stroke="none" stroke-width="1" fill="none" fill-rule="evenodd">
        <g id="Group-5" transform="translate(4.019464, 2.000000)">
            <path d="M27.980536,0 C30.7419597,-5.07265313e-16 32.980536,2.23857625 32.980536,5 L32.980536,39 C32.980536,41.7614237 30.7419597,44 27.980536,44 L11.980536,44 C9.21911221,44 6.98053596,41.7614237 6.98053596,39 L6.98053596,5 C6.98053596,2.23857625 9.21911221,3.38176876e-16 11.980536,0 L27.980536,0 Z M19.980536,38 C18.8759665,38 17.980536,38.8954305 17.980536,40 C17.980536,41.1045695 18.8759665,42 19.980536,42 C21.0851055,42 21.980536,41.1045695 21.980536,40 C21.980536,38.8954305 21.0851055,38 19.980536,38 Z" id="Combined-Shape" fill="#000000" opacity="0.501278832"></path>
            <path d="M30.0137034,23.0083667 L31.6229642,21.9674934 C32.5482249,21.3690328 33.7411496,21.3797206 34.655539,21.9946633 L34.7062878,22.0287927 C35.5831479,22.6184963 36.733214,22.6049127 37.5959014,21.9946633 L37.6038546,21.9890373 C38.4572146,21.3853858 39.5990556,21.3876429 40.4500225,21.9946633 C41.3053471,22.6047922 42.4489071,22.6222236 43.3224305,22.0384477 L43.3879466,21.9946633 C44.3079676,21.379813 45.5060571,21.3730651 46.4329455,21.9775132 L48.0137034,23.0083667 L48.0137034,23.0083667" id="Line-Copy" stroke="#000000" stroke-width="3" stroke-linecap="round" transform="translate(39.013703, 21.994663) scale(-1, -1) rotate(90.000000) translate(-39.013703, -21.994663) "></path>
            <path d="M-7.98629659,23.0083667 L-6.37703576,21.9674934 C-5.45177509,21.3690328 -4.25885035,21.3797206 -3.34446099,21.9946633 L-3.29371217,22.0287927 C-2.41685208,22.6184963 -1.26678599,22.6049127 -0.404098641,21.9946633 L-0.396145418,21.9890373 C0.457214572,21.3853858 1.59905561,21.3876429 2.45002248,21.9946633 C3.3053471,22.6047922 4.44890709,22.6222236 5.32243052,22.0384477 L5.38794657,21.9946633 C6.30796763,21.379813 7.50605705,21.3730651 8.43294546,21.9775132 L10.0137034,23.0083667 L10.0137034,23.0083667" id="Line-Copy-3" stroke="#000000" stroke-width="3" stroke-linecap="round" transform="translate(1.013703, 21.994663) scale(1, -1) rotate(90.000000) translate(-1.013703, -21.994663) "></path>
        </g>
    </g>
</svg>