<?xml version="1.0" encoding="UTF-8"?>
<svg width="428px" height="468px" viewBox="0 0 428 468" version="1.1" xmlns="http://www.w3.org/2000/svg" xmlns:xlink="http://www.w3.org/1999/xlink">
    <title>iPhone 13 Pro Max</title>
    <g id="Page-1" stroke="none" stroke-width="1" fill="none" fill-rule="evenodd">
        <g id="iPhone-13-Pro-Max" stroke="#000000" stroke-width="10">
            <g id="Group-2" transform="translate(-106.000000, -132.000000)">
                <path d="M299.585786,240 C299.851003,240 300.105357,240.105357 300.292893,240.292893 L320,260 L339.707107,240.292893 C339.894643,240.105357 340.148997,240 340.414214,240 L399,240 C399.552285,240 400,240.447715 400,241 L400,299.585786 C400,299.851003 399.894643,300.105357 399.707107,300.292893 L380,320 L399.707107,339.707107 C399.894643,339.894643 400,340.148997 400,340.414214 L400,399 C400,399.552285 399.552285,400 399,400 L340.414214,400 C340.148997,400 339.894643,399.894643 339.707107,399.707107 L320,380 L300.292893,399.707107 C300.105357,399.894643 299.851003,400 299.585786,400 L241,400 C240.447715,400 240,399.552285 240,399 L240,340.414214 C240,340.148997 240.105357,339.894643 240.292893,339.707107 L260,320 L240.292893,300.292893 C240.105357,300.105357 240,299.851003 240,299.585786 L240,241 C240,240.447715 240.447715,240 241,240 L299.585786,240 Z M359.585786,300 L340,300 L340,340 L300,340 L300,359.585786 C300,359.851003 300.105357,360.105357 300.292893,360.292893 L320,380 L339.707107,360.292893 C339.894643,360.105357 340,359.851003 340,359.585786 L340,340 L359.585786,340 C359.8068,340 360.02027,339.926836 360.193816,339.793919 L360.292893,339.707107 L380,320 L360.292893,300.292893 C360.105357,300.105357 359.851003,300 359.585786,300 L359.585786,300 Z M320,260 L300.292893,279.707107 C300.105357,279.894643 300,280.148997 300,280.414214 L300,300 L280.414214,300 C280.1932,300 279.97973,300.073164 279.806184,300.206081 L279.707107,300.292893 L260,320 L279.707107,339.707107 C279.894643,339.894643 280.148997,340 280.414214,340 L280.414214,340 L300,340 L300,300 L340,300 L340,280.414214 C340,280.148997 339.894643,279.894643 339.707107,279.707107 L320,260 Z" id="Combined-Shape"></path>
                <path d="M179.585786,120 C179.851003,120 180.105357,120.105357 180.292893,120.292893 L200,140 L219.707107,120.292893 C219.894643,120.105357 220.148997,120 220.414214,120 L279,120 C279.552285,120 280,120.447715 280,121 L280,179.585786 C280,179.851003 279.894643,180.105357 279.707107,180.292893 L260,200 L279.707107,219.707107 C279.894643,219.894643 280,220.148997 280,220.414214 L280,279 C280,279.552285 279.552285,280 279,280 L220.414214,280 C220.148997,280 219.894643,279.894643 219.707107,279.707107 L200,260 L180.292893,279.707107 C180.105357,279.894643 179.851003,280 179.585786,280 L121,280 C120.447715,280 120,279.552285 120,279 L120,220.414214 C120,220.148997 120.105357,219.894643 120.292893,219.707107 L140,200 L120.292893,180.292893 C120.105357,180.105357 120,179.851003 120,179.585786 L120,121 C120,120.447715 120.447715,120 121,120 L179.585786,120 Z M239.585786,180 L220,180 L220,220 L180,220 L180,239.585786 C180,239.851003 180.105357,240.105357 180.292893,240.292893 L200,260 L219.707107,240.292893 C219.894643,240.105357 220,239.851003 220,239.585786 L220,220 L239.585786,220 C239.8068,220 240.02027,219.926836 240.193816,219.793919 L240.292893,219.707107 L260,200 L240.292893,180.292893 C240.105357,180.105357 239.851003,180 239.585786,180 L239.585786,180 Z M200,140 L180.292893,159.707107 C180.105357,159.894643 180,160.148997 180,160.414214 L180,180 L160.414214,180 C160.1932,180 159.97973,180.073164 159.806184,180.206081 L159.707107,180.292893 L140,200 L159.707107,219.707107 C159.894643,219.894643 160.148997,220 160.414214,220 L160.414214,220 L180,220 L180,180 L220,180 L220,160.414214 C220,160.148997 219.894643,159.894643 219.707107,159.707107 L200,140 Z" id="Combined-Shape-Copy"></path>
                <path d="M419.585786,120 C419.851003,120 420.105357,120.105357 420.292893,120.292893 L440,140 L459.707107,120.292893 C459.894643,120.105357 460.148997,120 460.414214,120 L519,120 C519.552285,120 520,120.447715 520,121 L520,179.585786 C520,179.851003 519.894643,180.105357 519.707107,180.292893 L500,200 L519.707107,219.707107 C519.894643,219.894643 520,220.148997 520,220.414214 L520,279 C520,279.552285 519.552285,280 519,280 L460.414214,280 C460.148997,280 459.894643,279.894643 459.707107,279.707107 L440,260 L420.292893,279.707107 C420.105357,279.894643 419.851003,280 419.585786,280 L361,280 C360.447715,280 360,279.552285 360,279 L360,220.414214 C360,220.148997 360.105357,219.894643 360.292893,219.707107 L380,200 L360.292893,180.292893 C360.105357,180.105357 360,179.851003 360,179.585786 L360,121 C360,120.447715 360.447715,120 361,120 L419.585786,120 Z M479.585786,180 L460,180 L460,220 L420,220 L420,239.585786 C420,239.851003 420.105357,240.105357 420.292893,240.292893 L440,260 L459.707107,240.292893 C459.894643,240.105357 460,239.851003 460,239.585786 L460,220 L479.585786,220 C479.8068,220 480.02027,219.926836 480.193816,219.793919 L480.292893,219.707107 L500,200 L480.292893,180.292893 C480.105357,180.105357 479.851003,180 479.585786,180 L479.585786,180 Z M440,140 L420.292893,159.707107 C420.105357,159.894643 420,160.148997 420,160.414214 L420,180 L400.414214,180 C400.1932,180 399.97973,180.073164 399.806184,180.206081 L399.707107,180.292893 L380,200 L399.707107,219.707107 C399.894643,219.894643 400.148997,220 400.414214,220 L400.414214,220 L420,220 L420,180 L460,180 L460,160.414214 C460,160.148997 459.894643,159.894643 459.707107,159.707107 L440,140 Z" id="Combined-Shape-Copy-2"></path>
                <path d="M419.585786,360 C419.851003,360 420.105357,360.105357 420.292893,360.292893 L440,380 L459.707107,360.292893 C459.894643,360.105357 460.148997,360 460.414214,360 L519,360 C519.552285,360 520,360.447715 520,361 L520,419.585786 C520,419.851003 519.894643,420.105357 519.707107,420.292893 L500,440 L519.707107,459.707107 C519.894643,459.894643 520,460.148997 520,460.414214 L520,519 C520,519.552285 519.552285,520 519,520 L460.414214,520 C460.148997,520 459.894643,519.894643 459.707107,519.707107 L440,500 L420.292893,519.707107 C420.105357,519.894643 419.851003,520 419.585786,520 L361,520 C360.447715,520 360,519.552285 360,519 L360,460.414214 C360,460.148997 360.105357,459.894643 360.292893,459.707107 L380,440 L360.292893,420.292893 C360.105357,420.105357 360,419.851003 360,419.585786 L360,361 C360,360.447715 360.447715,360 361,360 L419.585786,360 Z M479.585786,420 L460,420 L460,460 L420,460 L420,479.585786 C420,479.851003 420.105357,480.105357 420.292893,480.292893 L440,500 L459.707107,480.292893 C459.894643,480.105357 460,479.851003 460,479.585786 L460,460 L479.585786,460 C479.8068,460 480.02027,459.926836 480.193816,459.793919 L480.292893,459.707107 L500,440 L480.292893,420.292893 C480.105357,420.105357 479.851003,420 479.585786,420 L479.585786,420 Z M440,380 L420.292893,399.707107 C420.105357,399.894643 420,400.148997 420,400.414214 L420,420 L400.414214,420 C400.1932,420 399.97973,420.073164 399.806184,420.206081 L399.707107,420.292893 L380,440 L399.707107,459.707107 C399.894643,459.894643 400.148997,460 400.414214,460 L400.414214,460 L420,460 L420,420 L460,420 L460,400.414214 C460,400.148997 459.894643,399.894643 459.707107,399.707107 L440,380 Z" id="Combined-Shape-Copy-3"></path>
                <path d="M179.585786,360 C179.851003,360 180.105357,360.105357 180.292893,360.292893 L200,380 L219.707107,360.292893 C219.894643,360.105357 220.148997,360 220.414214,360 L279,360 C279.552285,360 280,360.447715 280,361 L280,419.585786 C280,419.851003 279.894643,420.105357 279.707107,420.292893 L260,440 L279.707107,459.707107 C279.894643,459.894643 280,460.148997 280,460.414214 L280,519 C280,519.552285 279.552285,520 279,520 L220.414214,520 C220.148997,520 219.894643,519.894643 219.707107,519.707107 L200,500 L180.292893,519.707107 C180.105357,519.894643 179.851003,520 179.585786,520 L121,520 C120.447715,520 120,519.552285 120,519 L120,460.414214 C120,460.148997 120.105357,459.894643 120.292893,459.707107 L140,440 L120.292893,420.292893 C120.105357,420.105357 120,419.851003 120,419.585786 L120,361 C120,360.447715 120.447715,360 121,360 L179.585786,360 Z M239.585786,420 L220,420 L220,460 L180,460 L180,479.585786 C180,479.851003 180.105357,480.105357 180.292893,480.292893 L200,500 L219.707107,480.292893 C219.894643,480.105357 220,479.851003 220,479.585786 L220,460 L239.585786,460 C239.8068,460 240.02027,459.926836 240.193816,459.793919 L240.292893,459.707107 L260,440 L240.292893,420.292893 C240.105357,420.105357 239.851003,420 239.585786,420 L239.585786,420 Z M200,380 L180.292893,399.707107 C180.105357,399.894643 180,400.148997 180,400.414214 L180,420 L160.414214,420 C160.1932,420 159.97973,420.073164 159.806184,420.206081 L159.707107,420.292893 L140,440 L159.707107,459.707107 C159.894643,459.894643 160.148997,460 160.414214,460 L160.414214,460 L180,460 L180,420 L220,420 L220,400.414214 C220,400.148997 219.894643,399.894643 219.707107,399.707107 L200,380 Z" id="Combined-Shape-Copy-4"></path>
                <path d="M59.5857864,240 C59.8510029,240 60.1053568,240.105357 60.2928932,240.292893 L80,260 L99.7071068,240.292893 C99.8946432,240.105357 100.148997,240 100.414214,240 L159,240 C159.552285,240 160,240.447715 160,241 L160,299.585786 C160,299.851003 159.894643,300.105357 159.707107,300.292893 L140,320 L159.707107,339.707107 C159.894643,339.894643 160,340.148997 160,340.414214 L160,399 C160,399.552285 159.552285,400 159,400 L100.414214,400 C100.148997,400 99.8946432,399.894643 99.7071068,399.707107 L80,380 L60.2928932,399.707107 C60.1053568,399.894643 59.8510029,400 59.5857864,400 L1,400 C0.44771525,400 -1.88226917e-16,399.552285 0,399 L0,340.414214 C-3.24796525e-17,340.148997 0.10535684,339.894643 0.292893219,339.707107 L20,320 L0.292893219,300.292893 C0.10535684,300.105357 7.58199622e-15,299.851003 0,299.585786 L0,241 C-6.76353751e-17,240.447715 0.44771525,240 1,240 L59.5857864,240 Z M119.585786,300 L100,300 L100,340 L60,340 L60,359.585786 C60,359.851003 60.1053568,360.105357 60.2928932,360.292893 L80,380 L99.7071068,360.292893 C99.8946432,360.105357 100,359.851003 100,359.585786 L100,340 L119.585786,340 C119.8068,340 120.02027,339.926836 120.193816,339.793919 L120.292893,339.707107 L140,320 L120.292893,300.292893 C120.105357,300.105357 119.851003,300 119.585786,300 L119.585786,300 Z M80,260 L60.2928932,279.707107 C60.1053568,279.894643 60,280.148997 60,280.414214 L60,300 L40.4142136,300 C40.1931998,300 39.9797295,300.073164 39.806184,300.206081 L39.7071068,300.292893 L20,320 L39.7071068,339.707107 C39.8946432,339.894643 40.1489971,340 40.4142136,340 L40.4142136,340 L60,340 L60,300 L100,300 L100,280.414214 C100,280.148997 99.8946432,279.894643 99.7071068,279.707107 L80,260 Z" id="Combined-Shape-Copy-5"></path>
                <path d="M539.585786,240 C539.851003,240 540.105357,240.105357 540.292893,240.292893 L560,260 L579.707107,240.292893 C579.894643,240.105357 580.148997,240 580.414214,240 L639,240 C639.552285,240 640,240.447715 640,241 L640,299.585786 C640,299.851003 639.894643,300.105357 639.707107,300.292893 L620,320 L639.707107,339.707107 C639.894643,339.894643 640,340.148997 640,340.414214 L640,399 C640,399.552285 639.552285,400 639,400 L580.414214,400 C580.148997,400 579.894643,399.894643 579.707107,399.707107 L560,380 L540.292893,399.707107 C540.105357,399.894643 539.851003,400 539.585786,400 L481,400 C480.447715,400 480,399.552285 480,399 L480,340.414214 C480,340.148997 480.105357,339.894643 480.292893,339.707107 L500,320 L480.292893,300.292893 C480.105357,300.105357 480,299.851003 480,299.585786 L480,241 C480,240.447715 480.447715,240 481,240 L539.585786,240 Z M599.585786,300 L580,300 L580,340 L540,340 L540,359.585786 C540,359.851003 540.105357,360.105357 540.292893,360.292893 L560,380 L579.707107,360.292893 C579.894643,360.105357 580,359.851003 580,359.585786 L580,340 L599.585786,340 C599.8068,340 600.02027,339.926836 600.193816,339.793919 L600.292893,339.707107 L620,320 L600.292893,300.292893 C600.105357,300.105357 599.851003,300 599.585786,300 L599.585786,300 Z M560,260 L540.292893,279.707107 C540.105357,279.894643 540,280.148997 540,280.414214 L540,300 L520.414214,300 C520.1932,300 519.97973,300.073164 519.806184,300.206081 L519.707107,300.292893 L500,320 L519.707107,339.707107 C519.894643,339.894643 520.148997,340 520.414214,340 L520.414214,340 L540,340 L540,300 L580,300 L580,280.414214 C580,280.148997 579.894643,279.894643 579.707107,279.707107 L560,260 Z" id="Combined-Shape-Copy-6"></path>
                <path d="M299.585786,0 C299.851003,-3.82347776e-15 300.105357,0.10535684 300.292893,0.292893219 L320,20 L339.707107,0.292893219 C339.894643,0.10535684 340.148997,4.87194788e-17 340.414214,0 L399,0 C399.552285,-1.01453063e-16 400,0.44771525 400,1 L400,59.5857864 C400,59.8510029 399.894643,60.1053568 399.707107,60.2928932 L380,80 L399.707107,99.7071068 C399.894643,99.8946432 400,100.148997 400,100.414214 L400,159 C400,159.552285 399.552285,160 399,160 L340.414214,160 C340.148997,160 339.894643,159.894643 339.707107,159.707107 L320,140 L300.292893,159.707107 C300.105357,159.894643 299.851003,160 299.585786,160 L241,160 C240.447715,160 240,159.552285 240,159 L240,100.414214 C240,100.148997 240.105357,99.8946432 240.292893,99.7071068 L260,80 L240.292893,60.2928932 C240.105357,60.1053568 240,59.8510029 240,59.5857864 L240,1 C240,0.44771525 240.447715,-1.5440923e-16 241,0 L299.585786,0 Z M359.585786,60 L340,60 L340,100 L300,100 L300,119.585786 C300,119.851003 300.105357,120.105357 300.292893,120.292893 L320,140 L339.707107,120.292893 C339.894643,120.105357 340,119.851003 340,119.585786 L340,100 L359.585786,100 C359.8068,100 360.02027,99.9268355 360.193816,99.7939194 L360.292893,99.7071068 L380,80 L360.292893,60.2928932 C360.105357,60.1053568 359.851003,60 359.585786,60 L359.585786,60 Z M320,20 L300.292893,39.7071068 C300.105357,39.8946432 300,40.1489971 300,40.4142136 L300,60 L280.414214,60 C280.1932,60 279.97973,60.0731645 279.806184,60.2060806 L279.707107,60.2928932 L260,80 L279.707107,99.7071068 C279.894643,99.8946432 280.148997,100 280.414214,100 L280.414214,100 L300,100 L300,60 L340,60 L340,40.4142136 C340,40.1489971 339.894643,39.8946432 339.707107,39.7071068 L320,20 Z" id="Combined-Shape-Copy-7"></path>
                <path d="M299.585786,480 C299.851003,480 300.105357,480.105357 300.292893,480.292893 L320,500 L339.707107,480.292893 C339.894643,480.105357 340.148997,480 340.414214,480 L399,480 C399.552285,480 400,480.447715 400,481 L400,539.585786 C400,539.851003 399.894643,540.105357 399.707107,540.292893 L380,560 L399.707107,579.707107 C399.894643,579.894643 400,580.148997 400,580.414214 L400,639 C400,639.552285 399.552285,640 399,640 L340.414214,640 C340.148997,640 339.894643,639.894643 339.707107,639.707107 L320,620 L300.292893,639.707107 C300.105357,639.894643 299.851003,640 299.585786,640 L241,640 C240.447715,640 240,639.552285 240,639 L240,580.414214 C240,580.148997 240.105357,579.894643 240.292893,579.707107 L260,560 L240.292893,540.292893 C240.105357,540.105357 240,539.851003 240,539.585786 L240,481 C240,480.447715 240.447715,480 241,480 L299.585786,480 Z M359.585786,540 L340,540 L340,580 L300,580 L300,599.585786 C300,599.851003 300.105357,600.105357 300.292893,600.292893 L320,620 L339.707107,600.292893 C339.894643,600.105357 340,599.851003 340,599.585786 L340,580 L359.585786,580 C359.8068,580 360.02027,579.926836 360.193816,579.793919 L360.292893,579.707107 L380,560 L360.292893,540.292893 C360.105357,540.105357 359.851003,540 359.585786,540 L359.585786,540 Z M320,500 L300.292893,519.707107 C300.105357,519.894643 300,520.148997 300,520.414214 L300,540 L280.414214,540 C280.1932,540 279.97973,540.073164 279.806184,540.206081 L279.707107,540.292893 L260,560 L279.707107,579.707107 C279.894643,579.894643 280.148997,580 280.414214,580 L280.414214,580 L300,580 L300,540 L340,540 L340,520.414214 C340,520.148997 339.894643,519.894643 339.707107,519.707107 L320,500 Z" id="Combined-Shape-Copy-8"></path>
                <path d="M59.5857864,480 C59.8510029,480 60.1053568,480.105357 60.2928932,480.292893 L80,500 L99.7071068,480.292893 C99.8946432,480.105357 100.148997,480 100.414214,480 L159,480 C159.552285,480 160,480.447715 160,481 L160,539.585786 C160,539.851003 159.894643,540.105357 159.707107,540.292893 L140,560 L159.707107,579.707107 C159.894643,579.894643 160,580.148997 160,580.414214 L160,639 C160,639.552285 159.552285,640 159,640 L100.414214,640 C100.148997,640 99.8946432,639.894643 99.7071068,639.707107 L80,620 L60.2928932,639.707107 C60.1053568,639.894643 59.8510029,640 59.5857864,640 L1,640 C0.44771525,640 -1.88226917e-16,639.552285 0,639 L0,580.414214 C-3.24796525e-17,580.148997 0.10535684,579.894643 0.292893219,579.707107 L20,560 L0.292893219,540.292893 C0.10535684,540.105357 7.58199622e-15,539.851003 0,539.585786 L0,481 C-6.76353751e-17,480.447715 0.44771525,480 1,480 L59.5857864,480 Z M119.585786,540 L100,540 L100,580 L60,580 L60,599.585786 C60,599.851003 60.1053568,600.105357 60.2928932,600.292893 L80,620 L99.7071068,600.292893 C99.8946432,600.105357 100,599.851003 100,599.585786 L100,580 L119.585786,580 C119.8068,580 120.02027,579.926836 120.193816,579.793919 L120.292893,579.707107 L140,560 L120.292893,540.292893 C120.105357,540.105357 119.851003,540 119.585786,540 L119.585786,540 Z M80,500 L60.2928932,519.707107 C60.1053568,519.894643 60,520.148997 60,520.414214 L60,540 L40.4142136,540 C40.1931998,540 39.9797295,540.073164 39.806184,540.206081 L39.7071068,540.292893 L20,560 L39.7071068,579.707107 C39.8946432,579.894643 40.1489971,580 40.4142136,580 L40.4142136,580 L60,580 L60,540 L100,540 L100,520.414214 C100,520.148997 99.8946432,519.894643 99.7071068,519.707107 L80,500 Z" id="Combined-Shape-Copy-9"></path>
                <path d="M539.585786,480 C539.851003,480 540.105357,480.105357 540.292893,480.292893 L560,500 L579.707107,480.292893 C579.894643,480.105357 580.148997,480 580.414214,480 L639,480 C639.552285,480 640,480.447715 640,481 L640,539.585786 C640,539.851003 639.894643,540.105357 639.707107,540.292893 L620,560 L639.707107,579.707107 C639.894643,579.894643 640,580.148997 640,580.414214 L640,639 C640,639.552285 639.552285,640 639,640 L580.414214,640 C580.148997,640 579.894643,639.894643 579.707107,639.707107 L560,620 L540.292893,639.707107 C540.105357,639.894643 539.851003,640 539.585786,640 L481,640 C480.447715,640 480,639.552285 480,639 L480,580.414214 C480,580.148997 480.105357,579.894643 480.292893,579.707107 L500,560 L480.292893,540.292893 C480.105357,540.105357 480,539.851003 480,539.585786 L480,481 C480,480.447715 480.447715,480 481,480 L539.585786,480 Z M599.585786,540 L580,540 L580,580 L540,580 L540,599.585786 C540,599.851003 540.105357,600.105357 540.292893,600.292893 L560,620 L579.707107,600.292893 C579.894643,600.105357 580,599.851003 580,599.585786 L580,580 L599.585786,580 C599.8068,580 600.02027,579.926836 600.193816,579.793919 L600.292893,579.707107 L620,560 L600.292893,540.292893 C600.105357,540.105357 599.851003,540 599.585786,540 L599.585786,540 Z M560,500 L540.292893,519.707107 C540.105357,519.894643 540,520.148997 540,520.414214 L540,540 L520.414214,540 C520.1932,540 519.97973,540.073164 519.806184,540.206081 L519.707107,540.292893 L500,560 L519.707107,579.707107 C519.894643,579.894643 520.148997,580 520.414214,580 L520.414214,580 L540,580 L540,540 L580,540 L580,520.414214 C580,520.148997 579.894643,519.894643 579.707107,519.707107 L560,500 Z" id="Combined-Shape-Copy-10"></path>
                <path d="M539.585786,0 C539.851003,-3.82347776e-15 540.105357,0.10535684 540.292893,0.292893219 L560,20 L579.707107,0.292893219 C579.894643,0.10535684 580.148997,4.87194788e-17 580.414214,0 L639,0 C639.552285,-1.01453063e-16 640,0.44771525 640,1 L640,59.5857864 C640,59.8510029 639.894643,60.1053568 639.707107,60.2928932 L620,80 L639.707107,99.7071068 C639.894643,99.8946432 640,100.148997 640,100.414214 L640,159 C640,159.552285 639.552285,160 639,160 L580.414214,160 C580.148997,160 579.894643,159.894643 579.707107,159.707107 L560,140 L540.292893,159.707107 C540.105357,159.894643 539.851003,160 539.585786,160 L481,160 C480.447715,160 480,159.552285 480,159 L480,100.414214 C480,100.148997 480.105357,99.8946432 480.292893,99.7071068 L500,80 L480.292893,60.2928932 C480.105357,60.1053568 480,59.8510029 480,59.5857864 L480,1 C480,0.44771525 480.447715,-1.5440923e-16 481,0 L539.585786,0 Z M599.585786,60 L580,60 L580,100 L540,100 L540,119.585786 C540,119.851003 540.105357,120.105357 540.292893,120.292893 L560,140 L579.707107,120.292893 C579.894643,120.105357 580,119.851003 580,119.585786 L580,100 L599.585786,100 C599.8068,100 600.02027,99.9268355 600.193816,99.7939194 L600.292893,99.7071068 L620,80 L600.292893,60.2928932 C600.105357,60.1053568 599.851003,60 599.585786,60 L599.585786,60 Z M560,20 L540.292893,39.7071068 C540.105357,39.8946432 540,40.1489971 540,40.4142136 L540,60 L520.414214,60 C520.1932,60 519.97973,60.0731645 519.806184,60.2060806 L519.707107,60.2928932 L500,80 L519.707107,99.7071068 C519.894643,99.8946432 520.148997,100 520.414214,100 L520.414214,100 L540,100 L540,60 L580,60 L580,40.4142136 C580,40.1489971 579.894643,39.8946432 579.707107,39.7071068 L560,20 Z" id="Combined-Shape-Copy-11"></path>
                <path d="M59.5857864,0 C59.8510029,-3.82347776e-15 60.1053568,0.10535684 60.2928932,0.292893219 L80,20 L99.7071068,0.292893219 C99.8946432,0.10535684 100.148997,4.87194788e-17 100.414214,0 L159,0 C159.552285,-1.01453063e-16 160,0.44771525 160,1 L160,59.5857864 C160,59.8510029 159.894643,60.1053568 159.707107,60.2928932 L140,80 L159.707107,99.7071068 C159.894643,99.8946432 160,100.148997 160,100.414214 L160,159 C160,159.552285 159.552285,160 159,160 L100.414214,160 C100.148997,160 99.8946432,159.894643 99.7071068,159.707107 L80,140 L60.2928932,159.707107 C60.1053568,159.894643 59.8510029,160 59.5857864,160 L1,160 C0.44771525,160 -1.88226917e-16,159.552285 0,159 L0,100.414214 C-3.24796525e-17,100.148997 0.10535684,99.8946432 0.292893219,99.7071068 L20,80 L0.292893219,60.2928932 C0.10535684,60.1053568 7.58199622e-15,59.8510029 0,59.5857864 L0,1 C-6.76353751e-17,0.44771525 0.44771525,-1.5440923e-16 1,0 L59.5857864,0 Z M119.585786,60 L100,60 L100,100 L60,100 L60,119.585786 C60,119.851003 60.1053568,120.105357 60.2928932,120.292893 L80,140 L99.7071068,120.292893 C99.8946432,120.105357 100,119.851003 100,119.585786 L100,100 L119.585786,100 C119.8068,100 120.02027,99.9268355 120.193816,99.7939194 L120.292893,99.7071068 L140,80 L120.292893,60.2928932 C120.105357,60.1053568 119.851003,60 119.585786,60 L119.585786,60 Z M80,20 L60.2928932,39.7071068 C60.1053568,39.8946432 60,40.1489971 60,40.4142136 L60,60 L40.4142136,60 C40.1931998,60 39.9797295,60.0731645 39.806184,60.2060806 L39.7071068,60.2928932 L20,80 L39.7071068,99.7071068 C39.8946432,99.8946432 40.1489971,100 40.4142136,100 L40.4142136,100 L60,100 L60,60 L100,60 L100,40.4142136 C100,40.1489971 99.8946432,39.8946432 99.7071068,39.7071068 L80,20 Z" id="Combined-Shape-Copy-12"></path>
                <g id="Group" transform="translate(280.000000, 160.000000)">
                    <path d="M60,0 L60,19.5857864 C60,19.8510029 59.8946432,20.1053568 59.7071068,20.2928932 L20.2928932,59.7071068 C20.1053568,59.8946432 20,60.1489971 20,60.4142136 L20,80 L20,80" id="Path-4"></path>
                    <path d="M60,0 L60,19.5857864 C60,19.8510029 59.8946432,20.1053568 59.7071068,20.2928932 L20.2928932,59.7071068 C20.1053568,59.8946432 20,60.1489971 20,60.4142136 L20,80 L20,80" id="Path-4-Copy" transform="translate(40.000000, 40.000000) rotate(90.000000) translate(-40.000000, -40.000000) "></path>
                </g>
                <g id="Group-Copy" transform="translate(160.000000, 280.000000)">
                    <path d="M60,0 L60,19.5857864 C60,19.8510029 59.8946432,20.1053568 59.7071068,20.2928932 L20.2928932,59.7071068 C20.1053568,59.8946432 20,60.1489971 20,60.4142136 L20,80 L20,80" id="Path-4"></path>
                    <path d="M60,0 L60,19.5857864 C60,19.8510029 59.8946432,20.1053568 59.7071068,20.2928932 L20.2928932,59.7071068 C20.1053568,59.8946432 20,60.1489971 20,60.4142136 L20,80 L20,80" id="Path-4-Copy" transform="translate(40.000000, 40.000000) rotate(90.000000) translate(-40.000000, -40.000000) "></path>
                </g>
                <g id="Group-Copy-2" transform="translate(400.000000, 280.000000)">
                    <path d="M60,0 L60,19.5857864 C60,19.8510029 59.8946432,20.1053568 59.7071068,20.2928932 L20.2928932,59.7071068 C20.1053568,59.8946432 20,60.1489971 20,60.4142136 L20,80 L20,80" id="Path-4"></path>
                    <path d="M60,0 L60,19.5857864 C60,19.8510029 59.8946432,20.1053568 59.7071068,20.2928932 L20.2928932,59.7071068 C20.1053568,59.8946432 20,60.1489971 20,60.4142136 L20,80 L20,80" id="Path-4-Copy" transform="translate(40.000000, 40.000000) rotate(90.000000) translate(-40.000000, -40.000000) "></path>
                </g>
                <g id="Group-Copy-3" transform="translate(280.000000, 400.000000)">
                    <path d="M60,0 L60,19.5857864 C60,19.8510029 59.8946432,20.1053568 59.7071068,20.2928932 L20.2928932,59.7071068 C20.1053568,59.8946432 20,60.1489971 20,60.4142136 L20,80 L20,80" id="Path-4"></path>
                    <path d="M60,0 L60,19.5857864 C60,19.8510029 59.8946432,20.1053568 59.7071068,20.2928932 L20.2928932,59.7071068 C20.1053568,59.8946432 20,60.1489971 20,60.4142136 L20,80 L20,80" id="Path-4-Copy" transform="translate(40.000000, 40.000000) rotate(90.000000) translate(-40.000000, -40.000000) "></path>
                </g>
                <g id="Group-Copy-4" transform="translate(160.000000, 520.000000)">
                    <path d="M60,0 L60,19.5857864 C60,19.8510029 59.8946432,20.1053568 59.7071068,20.2928932 L20.2928932,59.7071068 C20.1053568,59.8946432 20,60.1489971 20,60.4142136 L20,80 L20,80" id="Path-4"></path>
                    <path d="M60,0 L60,19.5857864 C60,19.8510029 59.8946432,20.1053568 59.7071068,20.2928932 L20.2928932,59.7071068 C20.1053568,59.8946432 20,60.1489971 20,60.4142136 L20,80 L20,80" id="Path-4-Copy" transform="translate(40.000000, 40.000000) rotate(90.000000) translate(-40.000000, -40.000000) "></path>
                </g>
                <g id="Group-Copy-5" transform="translate(400.000000, 520.000000)">
                    <path d="M60,0 L60,19.5857864 C60,19.8510029 59.8946432,20.1053568 59.7071068,20.2928932 L20.2928932,59.7071068 C20.1053568,59.8946432 20,60.1489971 20,60.4142136 L20,80 L20,80" id="Path-4"></path>
                    <path d="M60,0 L60,19.5857864 C60,19.8510029 59.8946432,20.1053568 59.7071068,20.2928932 L20.2928932,59.7071068 C20.1053568,59.8946432 20,60.1489971 20,60.4142136 L20,80 L20,80" id="Path-4-Copy" transform="translate(40.000000, 40.000000) rotate(90.000000) translate(-40.000000, -40.000000) "></path>
                </g>
                <g id="Group-Copy-6" transform="translate(40.000000, 160.000000)">
                    <path d="M60,0 L60,19.5857864 C60,19.8510029 59.8946432,20.1053568 59.7071068,20.2928932 L20.2928932,59.7071068 C20.1053568,59.8946432 20,60.1489971 20,60.4142136 L20,80 L20,80" id="Path-4-Copy" transform="translate(40.000000, 40.000000) rotate(90.000000) translate(-40.000000, -40.000000) "></path>
                </g>
                <g id="Group-Copy-7" transform="translate(520.000000, 160.000000)">
                    <path d="M60,0 L60,19.5857864 C60,19.8510029 59.8946432,20.1053568 59.7071068,20.2928932 L20.2928932,59.7071068 C20.1053568,59.8946432 20,60.1489971 20,60.4142136 L20,80 L20,80" id="Path-4-Copy" transform="translate(40.000000, 40.000000) rotate(90.000000) translate(-40.000000, -40.000000) "></path>
                </g>
                <g id="Group-Copy-8" transform="translate(520.000000, 400.000000)">
                    <path d="M60,0 L60,19.5857864 C60,19.8510029 59.8946432,20.1053568 59.7071068,20.2928932 L20.2928932,59.7071068 C20.1053568,59.8946432 20,60.1489971 20,60.4142136 L20,80 L20,80" id="Path-4-Copy" transform="translate(40.000000, 40.000000) rotate(90.000000) translate(-40.000000, -40.000000) "></path>
                </g>
                <g id="Group-Copy-9" transform="translate(40.000000, 400.000000)">
                    <path d="M60,0 L60,19.5857864 C60,19.8510029 59.8946432,20.1053568 59.7071068,20.2928932 L20.2928932,59.7071068 C20.1053568,59.8946432 20,60.1489971 20,60.4142136 L20,80 L20,80" id="Path-4-Copy" transform="translate(40.000000, 40.000000) rotate(90.000000) translate(-40.000000, -40.000000) "></path>
                </g>
            </g>
        </g>
    </g>
</svg>