<?xml version="1.0" encoding="UTF-8"?>
<svg width="48px" height="48px" viewBox="0 0 48 48" version="1.1" xmlns="http://www.w3.org/2000/svg" xmlns:xlink="http://www.w3.org/1999/xlink">
    <title>2.0@1x</title>
    <g id="2.0" stroke="none" stroke-width="1" fill="none" fill-rule="evenodd">
        <path d="M14.2544881,39.0352833 L8.0099216,41.3003775 C7.49073713,41.4887015 6.91718819,41.2204861 6.72886418,40.7013017 C6.64896677,40.481035 6.64895263,40.2397063 6.72882424,40.0194303 L8.99379038,33.7729341 C9.8728473,31.348604 9.8722081,28.69249 8.99198444,26.2685833 L6.73011634,20.0399875 C6.54160329,19.5208717 6.80960982,18.9472251 7.32872567,18.758712 C7.54907349,18.6786944 7.7905299,18.6786335 8.01091803,18.7585401 L14.2478066,21.0198622 C16.6695285,21.8979111 19.3226006,21.8981935 21.7445093,21.0206601 L27.9910546,18.7573411 C28.5103055,18.5692002 29.0837598,18.8376179 29.2719006,19.3568688 C29.3516652,19.5770114 29.3516511,19.818164 29.2718607,20.0382973 L27.0084131,26.2829123 C26.1303742,28.7053296 26.1305739,31.3591093 27.0089774,33.7813944 L29.2706826,40.0182718 C29.4589624,40.5374723 29.1906983,41.1109984 28.6714978,41.2992783 C28.4510786,41.3792098 28.2095812,41.3791489 27.9892024,41.2991063 L21.7606172,39.0368556 C19.3361477,38.1562772 16.6793263,38.1557207 14.2544881,39.0352833 Z" id="Star" fill="#000000" opacity="0.499209449" transform="translate(18.000000, 30.029437) rotate(45.000000) translate(-18.000000, -30.029437) "></path>
        <path d="M31.7558744,18.1560444 L29.5049608,18.9725192 C29.2453686,19.0666812 28.9585941,18.9325735 28.8644321,18.6729813 C28.8244834,18.562848 28.8244763,18.4421836 28.8644121,18.3320456 L29.6808907,16.0802988 C30.4417933,13.9818236 30.44124,11.6827186 29.6793275,9.58460991 L28.8650582,7.34232424 C28.7708016,7.08276631 28.9048049,6.79594302 29.1643628,6.70168649 C29.2745367,6.66167766 29.395265,6.66164724 29.505459,6.70160053 L31.7489203,7.51501711 C33.8480524,8.27610397 36.1477174,8.27634873 38.2470115,7.51570871 L40.4955273,6.70100101 C40.7551527,6.60693059 41.0418799,6.74113944 41.1359503,7.00076487 C41.1758326,7.11083618 41.1758255,7.23141249 41.1359304,7.34147912 L40.3212265,9.58916173 C39.5602635,11.6885791 39.5604365,13.9885096 40.3217156,16.0878124 L41.1353413,18.3314664 C41.2294812,18.5910666 41.0953491,18.8778297 40.8357489,18.9719696 C40.7255393,19.0119354 40.6047906,19.0119049 40.4946012,18.9718836 L38.2521228,18.1574052 C36.1538434,17.3953005 33.8544729,17.3948188 31.7558744,18.1560444 Z" id="Star-Copy" fill="#000000" transform="translate(35.000000, 12.837049) rotate(45.000000) translate(-35.000000, -12.837049) "></path>
    </g>
</svg>