<?xml version="1.0" encoding="UTF-8"?>
<svg width="48px" height="48px" viewBox="0 0 48 48" version="1.1" xmlns="http://www.w3.org/2000/svg" xmlns:xlink="http://www.w3.org/1999/xlink">
    <title>2.0@1x</title>
    <g id="2.0" stroke="none" stroke-width="1" fill="none" fill-rule="evenodd">
        <g id="Sun-5" transform="translate(2.000000, 2.000000)">
            <path d="M42.9599413,25.0404759 C42.510099,24.9276216 42.0602566,25.0404759 41.6666446,25.3226117 C40.2046571,26.5640091 38.5177484,27.5796979 36.6621488,28.2568237 C34.9190099,28.9339496 33.00718,29.2725125 30.9828896,29.2725125 C26.4282361,29.2725125 22.2671947,27.4104164 19.2869893,24.4197772 C16.306784,21.4291379 14.4511844,17.2535285 14.4511844,12.6829289 C14.4511844,10.7644056 14.7885662,8.90230951 15.3508691,7.20949486 C15.9694023,5.40382589 16.8690869,3.7674384 18.049923,2.35675952 C18.5559956,1.73606081 18.443535,0.833226329 17.8250018,0.325381933 C17.4313898,0.0432461571 16.9815475,-0.0696081532 16.5317052,0.0432461571 C11.7521305,1.34107072 7.5910891,4.21885564 4.61088375,8.05590218 C1.74313898,11.8365216 0,16.5199755 0,21.6548466 C0,27.8054065 2.47413274,33.3916948 6.5227136,37.45445 C10.5712945,41.5172052 16.1380931,44 22.2671947,44 C27.4403813,44 32.219956,42.194331 36.0436157,39.2036918 C39.9235056,36.1566254 42.7350201,31.8117345 43.9158562,26.8461448 C44.1970077,25.9997375 43.7471653,25.2097573 42.9599413,25.0404759 Z" id="Path" fill="#000000" opacity="0.49906994"></path>
            <g id="Group-2" transform="translate(23.032914, 1.000000)" stroke="#000000" stroke-linecap="round" stroke-width="3">
                <line x1="3.46708637" y1="0.5" x2="3.46708637" y2="7.5" id="Line-3"></line>
                <line x1="3.46227749" y1="0.53772251" x2="3.46227749" y2="7.46227749" id="Line-3-Copy" transform="translate(3.462277, 4.000000) rotate(-90.000000) translate(-3.462277, -4.000000) "></line>
            </g>
            <g id="Group-3" transform="translate(33.032914, 15.000000)" stroke="#000000" stroke-linecap="round" stroke-width="3">
                <line x1="2.50347234" y1="0.375" x2="2.50347234" y2="5.625" id="Line-3-Copy-3"></line>
                <line x1="2.5" y1="0.5" x2="2.5" y2="5.5" id="Line-3-Copy-2" transform="translate(2.500000, 3.000000) rotate(-90.000000) translate(-2.500000, -3.000000) "></line>
            </g>
        </g>
    </g>
</svg>