<?xml version="1.0" encoding="UTF-8"?>
<svg width="48px" height="48px" viewBox="0 0 48 48" version="1.1" xmlns="http://www.w3.org/2000/svg" xmlns:xlink="http://www.w3.org/1999/xlink">
    <title>2.0@1x</title>
    <g id="2.0" stroke="none" stroke-width="1" fill="none" fill-rule="evenodd">
        <g id="99Names" transform="translate(1.197019, 1.197019)" fill="#000000">
            <path d="M21.3887676,0.585786438 C22.1698162,-0.195262146 23.4361462,-0.195262146 24.2171947,0.585786438 L24.2171947,0.585786438 L28.6621243,5.03071597 C29.037197,5.40578873 29.5459049,5.61650241 30.0763378,5.61650241 L30.0763378,5.61650241 L37.9894599,5.61650241 C39.0940294,5.61650241 39.9894599,6.51193291 39.9894599,7.61650241 L39.9894599,7.61650241 L39.9894599,15.5296245 C39.9894599,16.0600575 40.2001736,16.5687653 40.5752464,16.9438381 L40.5752464,16.9438381 L45.0201759,21.3887676 C45.8012245,22.1698162 45.8012245,23.4361462 45.0201759,24.2171947 L45.0201759,24.2171947 L40.5752464,28.6621243 C40.2001736,29.037197 39.9894599,29.5459049 39.9894599,30.0763378 L39.9894599,30.0763378 L39.9894599,37.9894599 C39.9894599,39.0940294 39.0940294,39.9894599 37.9894599,39.9894599 L37.9894599,39.9894599 L30.0763378,39.9894599 C29.5459049,39.9894599 29.037197,40.2001736 28.6621243,40.5752464 L28.6621243,40.5752464 L24.2171947,45.0201759 C23.4361462,45.8012245 22.1698162,45.8012245 21.3887676,45.0201759 L21.3887676,45.0201759 L16.9438381,40.5752464 C16.5687653,40.2001736 16.0600575,39.9894599 15.5296245,39.9894599 L15.5296245,39.9894599 L7.61650241,39.9894599 C6.51193291,39.9894599 5.61650241,39.0940294 5.61650241,37.9894599 L5.61650241,37.9894599 L5.61650241,30.0763378 C5.61650241,29.5459049 5.40578873,29.037197 5.03071597,28.6621243 L5.03071597,28.6621243 L0.585786438,24.2171947 C-0.195262146,23.4361462 -0.195262146,22.1698162 0.585786438,21.3887676 L0.585786438,21.3887676 L5.03071597,16.9438381 C5.40578873,16.5687653 5.61650241,16.0600575 5.61650241,15.5296245 L5.61650241,15.5296245 L5.61650241,7.61650241 C5.61650241,6.51193291 6.51193291,5.61650241 7.61650241,5.61650241 L7.61650241,5.61650241 L15.5296245,5.61650241 C16.0600575,5.61650241 16.5687653,5.40578873 16.9438381,5.03071597 L16.9438381,5.03071597 Z M30.7270083,19.3496112 C30.3694846,17.0800056 28.2958473,15.4884565 26.1953956,15.8557371 C24.4703439,16.1665129 23.1475062,17.5602956 22.8525492,19.3778635 C22.5754683,21.1106744 23.4960918,22.9753296 25.0245056,23.7663954 C25.6233577,24.0771713 26.4635384,24.237268 27.5361094,24.2466854 L27.5361094,24.2466854 L28.1349616,24.2466854 L28.1349616,26.3938641 C28.1349616,27.5710454 28.1796521,28.691722 28.2243425,28.880071 C28.2779711,29.06842 28.4567329,29.3509436 28.6354948,29.5110402 C28.8946994,29.7558939 29.0198327,29.8029812 29.4131088,29.8029812 C29.9672705,29.8029812 30.3784227,29.5675449 30.6108131,29.1249247 C30.7538226,28.8424012 30.7716988,28.4374509 30.798513,24.3879472 C30.8011614,23.9638131 30.8028288,23.5634487 30.8035445,23.1878339 L30.8035445,23.1878339 L30.8035608,22.3848789 C30.8000824,20.6951827 30.773354,19.6425985 30.7270083,19.3496112 Z M20.7264703,19.3458585 C20.3689466,17.0786544 18.2953092,15.4887893 16.1948576,15.8556812 C14.4698058,16.1661283 13.1469682,17.5584362 12.8520112,19.374081 C12.5749303,21.1050584 13.4955538,22.9677406 15.0239675,23.7579694 C15.6228197,24.0684164 16.4630004,24.2283437 17.5355714,24.2377512 L17.5355714,24.2377512 L18.1344236,24.2377512 L18.1345795,26.7020861 C18.1375587,28.9088799 18.1877329,29.107805 18.661771,29.5341657 C19.2248708,30.0327625 20.2438133,29.8069828 20.6102751,29.1108289 C20.7532845,28.8286043 20.7711607,28.4240824 20.797975,24.3788635 C20.8006233,23.9551782 20.8022908,23.5552374 20.8030065,23.1800201 L20.8030065,23.1800201 L20.8030228,22.3779147 C20.7995444,20.6900063 20.7728159,19.6385358 20.7264703,19.3458585 Z M26.6780526,18.6244675 C27.2858429,18.5773802 27.6701808,18.7751467 27.9561998,19.2742716 C28.0992092,19.5285427 28.1349616,19.7545615 28.1349616,20.5079576 L28.1349616,21.4214503 L27.2679667,21.4214503 C26.5529193,21.4214503 26.3384051,21.3837805 26.0970766,21.2331013 C25.6233577,20.9317428 25.4356578,20.5267925 25.4803483,19.8864058 C25.5071625,19.4061159 25.551853,19.3025239 25.8378719,19.0011655 C26.1238909,18.6998071 26.2222099,18.6527198 26.6780526,18.6244675 Z M16.6775146,18.6214821 C17.2853048,18.5744447 17.6696428,18.7720019 17.9556617,19.2705986 C18.0986712,19.5246007 18.1344236,19.7503804 18.1344236,20.5029793 L18.1344236,20.5029793 L18.1344236,21.4155054 L17.2674286,21.4155054 C16.5523813,21.4155054 16.3378671,21.3778755 16.0965386,21.2273557 C15.6228197,20.9263161 15.4351198,20.5217942 15.4798102,19.8820852 C15.5066245,19.4023034 15.551315,19.2988211 15.8373339,18.9977815 C16.1233529,18.696742 16.2216719,18.6497045 16.6775146,18.6214821 Z" id="Combined-Shape" opacity="0.496861049"></path>
            <path d="M30.7270083,19.3496112 C30.773354,19.6425985 30.8000824,20.6951827 30.8035608,22.3848789 L30.8035445,23.1878339 C30.8028288,23.5634487 30.8011614,23.9638131 30.798513,24.3879472 C30.7716988,28.4374509 30.7538226,28.8424012 30.6108131,29.1249247 C30.3784227,29.5675449 29.9672705,29.8029812 29.4131088,29.8029812 C29.0198327,29.8029812 28.8946994,29.7558939 28.6354948,29.5110402 C28.4567329,29.3509436 28.2779711,29.06842 28.2243425,28.880071 C28.1796521,28.691722 28.1349616,27.5710454 28.1349616,26.3938641 L28.1349616,24.2466854 L27.5361094,24.2466854 C26.4635384,24.237268 25.6233577,24.0771713 25.0245056,23.7663954 C23.4960918,22.9753296 22.5754683,21.1106744 22.8525492,19.3778635 C23.1475062,17.5602956 24.4703439,16.1665129 26.1953956,15.8557371 C28.2958473,15.4884565 30.3694846,17.0800056 30.7270083,19.3496112 Z M20.7264703,19.3458585 C20.7728159,19.6385358 20.7995444,20.6900063 20.8030228,22.3779147 L20.8030065,23.1800201 C20.8022908,23.5552374 20.8006233,23.9551782 20.797975,24.3788635 C20.7711607,28.4240824 20.7532845,28.8286043 20.6102751,29.1108289 C20.2438133,29.8069828 19.2248708,30.0327625 18.661771,29.5341657 C18.1877329,29.107805 18.1375587,28.9088799 18.1345795,26.7020861 L18.1344236,24.2377512 L17.5355714,24.2377512 C16.4630004,24.2283437 15.6228197,24.0684164 15.0239675,23.7579694 C13.4955538,22.9677406 12.5749303,21.1050584 12.8520112,19.374081 C13.1469682,17.5584362 14.4698058,16.1661283 16.1948576,15.8556812 C18.2953092,15.4887893 20.3689466,17.0786544 20.7264703,19.3458585 Z M26.6780526,18.6244675 C26.2222099,18.6527198 26.1238909,18.6998071 25.8378719,19.0011655 C25.551853,19.3025239 25.5071625,19.4061159 25.4803483,19.8864058 C25.4356578,20.5267925 25.6233577,20.9317428 26.0970766,21.2331013 C26.3384051,21.3837805 26.5529193,21.4214503 27.2679667,21.4214503 L28.1349616,21.4214503 L28.1349616,20.5079576 C28.1349616,19.7545615 28.0992092,19.5285427 27.9561998,19.2742716 C27.6701808,18.7751467 27.2858429,18.5773802 26.6780526,18.6244675 Z M16.6775146,18.6214821 C16.2216719,18.6497045 16.1233529,18.696742 15.8373339,18.9977815 C15.551315,19.2988211 15.5066245,19.4023034 15.4798102,19.8820852 C15.4351198,20.5217942 15.6228197,20.9263161 16.0965386,21.2273557 C16.3378671,21.3778755 16.5523813,21.4155054 17.2674286,21.4155054 L18.1344236,21.4155054 L18.1344236,20.5029793 C18.1344236,19.7503804 18.0986712,19.5246007 17.9556617,19.2705986 C17.6696428,18.7720019 17.2853048,18.5744447 16.6775146,18.6214821 Z" id="Combined-Shape" fill-rule="nonzero"></path>
        </g>
    </g>
</svg>