<?xml version="1.0" encoding="UTF-8"?>
<svg width="48px" height="48px" viewBox="0 0 48 48" version="1.1" xmlns="http://www.w3.org/2000/svg" xmlns:xlink="http://www.w3.org/1999/xlink">
    <title>2.0@1x</title>
    <g id="2.0" stroke="none" stroke-width="1" fill="none" fill-rule="evenodd" fill-opacity="0.7">
        <g id="Share" transform="translate(2.000000, 2.000000)" fill="#000000">
            <path d="M22,0 C34.1502645,0 44,9.8497355 44,22 C44,34.1502645 34.1502645,44 22,44 C9.8497355,44 0,34.1502645 0,22 C0,9.8497355 9.8497355,0 22,0 Z M28.4801742,13.7282868 L17.5705267,13.7282868 C16.5663214,13.7282868 15.7522521,14.5423561 15.7522521,15.5465614 C15.7522521,16.5507667 16.5663214,17.364836 17.5705267,17.364836 L17.5705267,17.364836 L24.063,17.364 L14.2857143,27.1428571 C13.5756339,27.8529375 13.5756339,29.0042053 14.2857143,29.7142857 C14.9957947,30.4243661 16.1470625,30.4243661 16.8571429,29.7142857 L16.8571429,29.7142857 L26.661,19.91 L26.6618996,26.4562089 C26.6618996,27.4604142 27.4759688,28.2744834 28.4801742,28.2744834 C29.4843795,28.2744834 30.2984487,27.4604142 30.2984487,26.4562089 L30.2984487,26.4562089 L30.2984487,15.5465614 C30.2984487,14.5423561 29.4843795,13.7282868 28.4801742,13.7282868 L28.4801742,13.7282868 Z" id="Combined-Shape"></path>
        </g>
    </g>
</svg>