<svg class="border shadow-md" viewBox="0 0 2117.28 1058.64" xmlns="http://www.w3.org/2000/svg" preserveAspectRatio="none" style="width: 2117.28px; height: 1058.64px;"><rect x="0" y="0" width="10" height="6" rx="1" stroke="none" stroke-width="10" fill="#a07480" transform="translate(882.2, 882.2) rotate(56 50 50) scale(35.288000000000004)"/><polygon points="0,10 10,10 5,0" stroke="none" fill="#91bcbb" stroke-width="10" transform="translate(1940.8400000000001, 352.88) rotate(202 50 50) scale(35.288000000000004)" stroke-linejoin="round"/><polygon points="6,2 10,4 10,8 6,10 2,8 2,4" stroke="#A634C4" fill="none" stroke-width="16" transform=" rotate(199 50 50) scale(44)" stroke-linejoin="round"/><polygon points="6,2 10,4 10,8 6,10 2,8 2,4" stroke="#AE1CDD" fill="#90dee6" stroke-width="10" transform=" rotate(129 50 50) scale(42)" stroke-linejoin="round"/><path d="M9,9Q6,12,4,9Q2,6,4,3.5Q6,1,9,3.5Q12,6,9,9Z" stroke="#f1a65b" fill="none" transform=" rotate(172 50 50) scale(35.288000000000004)"/><circle cx="5" cy="5" r="5" stroke="none" stroke-width="10" fill="#a0f22d" transform="translate(1912.2800000000002, 853.6400000000001) rotate(307 50 50) scale(41)"/><polygon points="6,2 10,4 10,8 6,10 2,8 2,4" stroke="#664CF9" fill="none" stroke-width="8" transform=" rotate(37 50 50) scale(46)" stroke-linejoin="round"/><polygon points="6,2 10,4 10,8 6,10 2,8 2,4" stroke="#7623B6" fill="none" stroke-width="16" transform=" rotate(303 50 50) scale(35.288000000000004)" stroke-linejoin="round"/></svg>