<?xml version="1.0" encoding="UTF-8"?>
<svg width="48px" height="48px" viewBox="0 0 48 48" version="1.1" xmlns="http://www.w3.org/2000/svg" xmlns:xlink="http://www.w3.org/1999/xlink">
    <title>2.0@1x</title>
    <g id="2.0" stroke="none" stroke-width="1" fill="none" fill-rule="evenodd">
        <g id="Sun-3" transform="translate(0.760409, 0.799616)" fill="#000000">
            <circle id="Oval" opacity="0.504813058" cx="23.2395911" cy="23.2003836" r="15"></circle>
            <g id="Group">
                <path d="M23.2395911,4 C24.3441606,4 25.2395911,3.1045695 25.2395911,2 C25.2395911,0.8954305 24.3441606,-8.8817842e-16 23.2395911,-8.8817842e-16 C22.1350216,-8.8817842e-16 21.2395911,0.8954305 21.2395911,2 C21.2395911,3.1045695 22.1350216,4 23.2395911,4 Z" id="Oval"></path>
                <path d="M44.4795143,25.2003836 C45.5840838,25.2003836 46.4795143,24.3049531 46.4795143,23.2003836 C46.4795143,22.0958141 45.5840838,21.2003836 44.4795143,21.2003836 C43.3749448,21.2003836 42.4795143,22.0958141 42.4795143,23.2003836 C42.4795143,24.3049531 43.3749448,25.2003836 44.4795143,25.2003836 Z" id="Oval"></path>
                <path d="M2,25.2003836 C3.1045695,25.2003836 4,24.3049531 4,23.2003836 C4,22.0958141 3.1045695,21.2003836 2,21.2003836 C0.8954305,21.2003836 0,22.0958141 0,23.2003836 C0,24.3049531 0.8954305,25.2003836 2,25.2003836 Z" id="Oval-Copy"></path>
                <path d="M23.2395911,46.4270079 C24.3441606,46.4270079 25.2395911,45.5315774 25.2395911,44.4270079 C25.2395911,43.3224384 24.3441606,42.4270079 23.2395911,42.4270079 C22.1350216,42.4270079 21.2395911,43.3224384 21.2395911,44.4270079 C21.2395911,45.5315774 22.1350216,46.4270079 23.2395911,46.4270079 Z" id="Oval-Copy-3"></path>
                <path d="M8.23959107,40.2003836 C9.34416057,40.2003836 10.2395911,39.3049531 10.2395911,38.2003836 C10.2395911,37.0958141 9.34416057,36.2003836 8.23959107,36.2003836 C7.13502157,36.2003836 6.23959107,37.0958141 6.23959107,38.2003836 C6.23959107,39.3049531 7.13502157,40.2003836 8.23959107,40.2003836 Z" id="Oval-Copy-4"></path>
                <path d="M38.2395911,10.2003836 C39.3441606,10.2003836 40.2395911,9.3049531 40.2395911,8.2003836 C40.2395911,7.0958141 39.3441606,6.2003836 38.2395911,6.2003836 C37.1350216,6.2003836 36.2395911,7.0958141 36.2395911,8.2003836 C36.2395911,9.3049531 37.1350216,10.2003836 38.2395911,10.2003836 Z" id="Oval-Copy-5"></path>
                <path d="M38.2395911,40.2003836 C39.3441606,40.2003836 40.2395911,39.3049531 40.2395911,38.2003836 C40.2395911,37.0958141 39.3441606,36.2003836 38.2395911,36.2003836 C37.1350216,36.2003836 36.2395911,37.0958141 36.2395911,38.2003836 C36.2395911,39.3049531 37.1350216,40.2003836 38.2395911,40.2003836 Z" id="Oval-Copy-6"></path>
                <path d="M8.23959107,10.2003836 C9.34416057,10.2003836 10.2395911,9.3049531 10.2395911,8.2003836 C10.2395911,7.0958141 9.34416057,6.2003836 8.23959107,6.2003836 C7.13502157,6.2003836 6.23959107,7.0958141 6.23959107,8.2003836 C6.23959107,9.3049531 7.13502157,10.2003836 8.23959107,10.2003836 Z" id="Oval-Copy-7"></path>
            </g>
        </g>
    </g>
</svg>