<?xml version="1.0" encoding="UTF-8"?>
<svg width="48px" height="48px" viewBox="0 0 48 48" version="1.1" xmlns="http://www.w3.org/2000/svg" xmlns:xlink="http://www.w3.org/1999/xlink">
    <title>2.0@1x</title>
    <g id="2.0" stroke="none" stroke-width="1" fill="none" fill-rule="evenodd">
        <g id="Calendar" transform="translate(4.000000, 2.000000)">
            <path d="M40,14 L40,34 C40,39.5228475 35.5228475,44 30,44 L10,44 C4.4771525,44 3.38176876e-16,39.5228475 0,34 L0,14 L40,14 Z" id="Combined-Shape-Copy-2" fill-opacity="0.2" fill="#000000"></path>
            <path d="M10,2 L30,2 C35.5228475,2 40,6.4771525 40,12 L40,14 L40,14 L0,14 L0,12 C-6.76353751e-16,6.4771525 4.4771525,2 10,2 Z" id="Rectangle-Copy-4" fill-opacity="0.4" fill="#000000"></path>
            <line x1="12" y1="0" x2="12" y2="8" id="Path-45" stroke-opacity="0.9" stroke="#000000" stroke-width="3.4" stroke-linecap="round"></line>
            <line x1="28" y1="0" x2="28" y2="8" id="Path-45" stroke-opacity="0.9" stroke="#000000" stroke-width="3.4" stroke-linecap="round"></line>
            <line x1="9" y1="24" x2="32" y2="24" id="Line-7" stroke-opacity="0.9" stroke="#000000" stroke-width="4" stroke-linecap="round"></line>
        </g>
    </g>
</svg>