<?xml version="1.0" encoding="UTF-8"?>
<svg width="48px" height="48px" viewBox="0 0 48 48" version="1.1" xmlns="http://www.w3.org/2000/svg" xmlns:xlink="http://www.w3.org/1999/xlink">
    <title>2.0@1x</title>
    <g id="2.0" stroke="none" stroke-width="1" fill="none" fill-rule="evenodd">
        <g id="Sun-4" transform="translate(0.760409, 0.799616)" fill="#000000">
            <g id="Group">
                <path d="M23.2395911,4 C24.3441606,4 25.2395911,3.1045695 25.2395911,2 C25.2395911,0.8954305 24.3441606,-8.8817842e-16 23.2395911,-8.8817842e-16 C22.1350216,-8.8817842e-16 21.2395911,0.8954305 21.2395911,2 C21.2395911,3.1045695 22.1350216,4 23.2395911,4 Z" id="Oval"></path>
                <path d="M44.4795143,25.2003836 C45.5840838,25.2003836 46.4795143,24.3049531 46.4795143,23.2003836 C46.4795143,22.0958141 45.5840838,21.2003836 44.4795143,21.2003836 C43.3749448,21.2003836 42.4795143,22.0958141 42.4795143,23.2003836 C42.4795143,24.3049531 43.3749448,25.2003836 44.4795143,25.2003836 Z" id="Oval"></path>
                <path d="M2,25.2003836 C3.1045695,25.2003836 4,24.3049531 4,23.2003836 C4,22.0958141 3.1045695,21.2003836 2,21.2003836 C0.8954305,21.2003836 0,22.0958141 0,23.2003836 C0,24.3049531 0.8954305,25.2003836 2,25.2003836 Z" id="Oval-Copy"></path>
                <path d="M38.2395911,10.2003836 C39.3441606,10.2003836 40.2395911,9.3049531 40.2395911,8.2003836 C40.2395911,7.0958141 39.3441606,6.2003836 38.2395911,6.2003836 C37.1350216,6.2003836 36.2395911,7.0958141 36.2395911,8.2003836 C36.2395911,9.3049531 37.1350216,10.2003836 38.2395911,10.2003836 Z" id="Oval-Copy-5"></path>
                <path d="M8.23959107,10.2003836 C9.34416057,10.2003836 10.2395911,9.3049531 10.2395911,8.2003836 C10.2395911,7.0958141 9.34416057,6.2003836 8.23959107,6.2003836 C7.13502157,6.2003836 6.23959107,7.0958141 6.23959107,8.2003836 C6.23959107,9.3049531 7.13502157,10.2003836 8.23959107,10.2003836 Z" id="Oval-Copy-7"></path>
            </g>
            <path d="M38.2395911,23.2005174 C38.2395911,14.9161124 31.5238623,8.2003836 23.2395911,8.2003836 C14.9553198,8.2003836 8.23959107,14.9161124 8.23959107,23.2005174 C12.1574449,23.1935573 17.7515317,23.1876161 23.2625969,23.1862 C30.7510972,23.1842759 30.7497554,23.1996458 38.2395911,23.2005174 Z" id="Oval" opacity="0.501883371"></path>
        </g>
        <path d="M5.02784802,33.0030472 L8.45292043,31.9539674 C10.5327497,31.3169278 12.7573886,31.3292688 14.8300223,31.9893438 L14.9721192,32.0345977 C16.9480161,32.6638648 19.0729016,32.6480154 21.0391918,31.9893438 L21.0618704,31.9817469 C23.010531,31.3289809 25.1192429,31.3316489 27.0662455,31.9893438 C29.0160224,32.6479759 31.1249324,32.6682876 33.0870334,32.0473324 L33.2702662,31.9893438 C35.3558968,31.3292946 37.5932976,31.3214891 39.6834827,31.9669704 L43.0384869,33.0030472 L43.0384869,33.0030472" id="Line-Copy" stroke="#000000" stroke-width="4" stroke-linecap="round" transform="translate(24.033167, 31.989344) scale(-1, -1) translate(-24.033167, -31.989344) "></path>
        <path d="M11.5929579,38.9756404 L14.9180805,40.0345977 C16.8939773,40.6638648 19.0188629,40.6480154 20.9851531,39.9893438 L21.0078316,39.9817469 C22.9564923,39.3289809 25.0652042,39.3316489 27.0122068,39.9893438 C28.9619837,40.6479759 31.0708936,40.6682876 33.0329947,40.0473324 L36.4193383,38.9756404 L36.4193383,38.9756404" id="Line-Copy" stroke="#000000" stroke-width="4" stroke-linecap="round" transform="translate(24.006148, 39.989344) scale(-1, -1) translate(-24.006148, -39.989344) "></path>
    </g>
</svg>